<?xml version="1.0" encoding="utf-8"?>
<!-- Generator: Adobe Illustrator 16.0.0, SVG Export Plug-In . SVG Version: 6.00 Build 0)  -->
<!DOCTYPE svg PUBLIC "-//W3C//DTD SVG 1.1//EN" "http://www.w3.org/Graphics/SVG/1.1/DTD/svg11.dtd">
<svg version="1.1" id="Layer_1" xmlns="http://www.w3.org/2000/svg" xmlns:xlink="http://www.w3.org/1999/xlink" x="0px" y="0px"
	 width="1084.316px" height="309.744px" viewBox="0 0 1084.316 309.744" enable-background="new 0 0 1084.316 309.744"
	 xml:space="preserve">
<g id="_293755664">
	<path fill="#FFFFFF" d="M155.029,0.062c-61.84,0-112.25,49.98-112.25,111.82v69.04h-42.78c0,23.72,19.061,43.2,42.78,43.2v42.779
		c0,11.859,4.87,22.551,12.71,30.291c7.83,7.72,18.63,12.488,30.49,12.488v-85.56h69.05c30.92,0,58.87-12.601,79.1-32.931
		c20.23-20.33,32.721-48.389,32.721-79.311V0.062H155.029z M224.069,111.882c0,19.06-7.73,36.32-20.23,48.811
		c-12.489,12.5-29.75,20.229-48.81,20.229h-69.05v-69.04c0-19.06,7.729-36.32,20.229-48.81c12.49-12.5,29.75-20.229,48.82-20.229
		h69.04V111.882z"/>
	<circle fill="#FFFFFF" cx="182.555" cy="80.114" r="21.602"/>
	<path fill="#FFFFFF" d="M272.774,219.465V77.573h43.627v141.893L272.774,219.465L272.774,219.465z M990.286,23.357L990.286,23.357
		v77.935c5.506-8.471,12.283-14.824,20.754-19.483c8.896-4.659,18.215-7.2,28.38-7.2c9.741,0,17.365,1.694,23.296,5.082
		c5.93,3.389,10.166,7.625,13.554,12.707c2.965,5.083,5.083,11.013,6.354,17.366c0.848,6.354,1.693,12.707,1.693,19.061v90.642
		h-43.627v-79.629c0-43.203-42.779-12.283-50.403,15.673v63.956h-43.202V66.56l0,0C947.083,42.84,966.567,23.357,990.286,23.357z
		 M466.765,77.573V66.56c0-23.72,19.482-43.203,43.626-43.203l0,0v54.216h53.369l0,0c0,18.213-9.318,32.614-32.19,32.614
		c-5.507,0-10.589,0-21.179,0v59.298c0,4.66,0.848,8.048,3.389,10.166c2.118,2.117,5.083,2.965,8.473,2.965h13.13v39.814h-25.837
		c-1.271,0-2.118,0-2.966,0c-1.271,0-2.117,0-2.965,0h-0.424l0,0c-4.235-0.424-8.048-0.848-11.859-2.117
		c-5.083-1.271-9.317-3.39-12.707-6.354c-3.813-2.965-6.354-7.2-8.472-11.858c-2.117-5.084-3.388-10.591-3.388-17.791v-74.123
		V77.573L466.765,77.573z M595.527,110.187h-23.719V77.573h23.719c37.273-0.424,46.592-2.118,63.111,12.283
		c11.858,10.165,17.789,24.99,17.789,44.474v24.565v11.86v50.403c-0.423,0-0.848,0.424-1.271,0.424
		c-2.965,0-5.506,0.424-8.048,0.424c-8.471,0-14.4-1.693-18.637-5.083c-7.2-5.083-7.624-8.048-8.471-16.096
		c-12.283,15.672-30.497,21.603-50.404,21.603c-7.2,0-13.555-1.271-19.907-3.389c-5.93-2.542-11.013-5.507-15.248-9.742
		c-4.659-3.813-8.048-8.472-10.589-13.979c-2.542-5.506-3.813-11.858-3.813-18.213c0-7.201,1.693-13.555,4.658-19.061
		c2.965-5.93,7.201-11.013,12.707-14.825c5.507-4.235,11.859-7.624,19.062-9.741c7.624-2.542,15.672-3.813,24.565-3.813
		c5.931,0,11.859,0.424,17.366,1.694c5.506,0.848,10.589,2.541,14.824,4.235v-6.354c0-16.519-7.624-19.06-26.261-19.06
		C604.423,110.187,600.187,110.187,595.527,110.187z M421.02,171.603h41.933c0,16.521-7.199,29.227-24.989,40.238
		c-11.437,7.201-25.413,10.59-41.51,10.59c-12.282,0-22.872-2.117-32.189-6.354c-9.742-3.812-17.366-9.317-24.145-16.095
		c-6.775-6.777-11.436-14.401-15.248-23.721c-3.389-8.895-5.083-18.213-5.083-27.955c0-9.742,1.694-19.061,5.083-27.955
		c3.813-8.895,8.473-16.519,15.248-23.296c6.354-6.776,14.401-12.283,23.721-16.095c9.741-4.236,20.331-6.354,32.613-6.354
		c16.097,0,29.649,4.235,41.085,10.589c13.556,8.048,25.414,20.331,25.414,40.238h-42.355v-0.424
		c-5.506-8.895-13.554-13.554-24.566-13.554c-8.895,0-16.519,3.389-22.448,10.165c-6.354,6.777-9.317,15.672-9.317,26.685
		c0,5.93,0.847,11.012,2.541,15.249c1.693,4.658,3.813,8.895,6.776,11.859c2.966,3.389,6.354,5.93,10.165,7.624
		c3.813,1.694,8.049,2.965,12.283,2.965c5.507,0,10.166-1.694,14.825-4.235C415.514,179.228,418.903,175.838,421.02,171.603z
		 M632.801,171.179c-13.979-22.024-51.675-15.671-51.675,2.118C581.126,199.134,622.212,194.476,632.801,171.179z M695.911,122.046
		h-18.213V89.008h18.213v-7.2c0-8.471,1.694-16.096,4.659-23.296c2.541-7.2,6.776-13.13,12.283-18.637
		c5.083-5.083,11.436-9.318,19.06-12.283c7.625-2.541,16.097-4.235,25.414-4.235c0.849,0,1.694,0,2.541,0v36.85
		c-6.775,0-11.858,1.694-15.248,5.506c-3.389,3.813-5.082,8.472-5.082,14.401v8.895h78.358v130.457h-43.203v-97.419h-35.155v97.419
		h-43.627V122.046L695.911,122.046z M885.667,222.431c-11.859,0-23.72-2.117-35.579-5.931c-11.859-3.812-21.603-9.317-29.648-16.942
		l15.248-26.685c8.471,6.354,16.942,10.59,25.413,13.978c8.048,3.389,16.096,5.084,23.72,5.084c5.506,0,9.742-1.271,12.707-2.965
		c3.389-2.119,4.659-5.084,4.659-8.896s-1.694-6.776-5.931-8.895c-3.813-2.541-10.59-4.66-20.33-7.201
		c-9.318-2.541-17.366-5.506-24.145-8.047c-6.775-2.542-11.858-5.083-16.095-8.472c-4.236-2.965-7.201-6.354-8.896-10.589
		c-1.693-3.813-2.965-8.472-2.965-13.978c0-7.201,1.694-13.555,4.659-19.484c2.965-5.929,6.777-11.013,11.86-15.248
		c5.082-4.235,11.013-7.624,17.789-9.742c7.199-2.541,14.824-3.812,22.872-3.812c10.59,0,20.331,1.694,29.648,4.659
		c9.318,2.965,18.214,8.048,27.108,15.672l-16.942,25.837c-8.048-5.507-15.249-9.742-21.602-12.283
		c-6.354-2.542-12.284-3.813-18.214-3.813c-4.659,0-8.896,1.271-11.859,2.965c-3.389,2.118-5.083,5.083-5.083,9.318
		c0,3.813,1.694,6.777,5.507,8.896c3.389,1.694,9.742,3.812,19.483,6.354c10.166,2.541,18.637,5.506,25.414,8.047
		c7.199,2.965,12.706,5.931,16.941,9.318c4.235,2.965,7.624,7.2,9.742,11.437c1.693,4.235,2.965,9.318,2.965,15.248
		c0,13.979-5.507,25.414-15.672,33.463C917.858,218.194,903.456,222.431,885.667,222.431z"/>
	<circle fill="#FFFFFF" cx="295.222" cy="44.958" r="21.602"/>
	<circle fill="#FFFFFF" cx="800.954" cy="44.958" r="21.602"/>
</g>
</svg>
