<svg id="Layer_1" data-name="Layer 1" xmlns="http://www.w3.org/2000/svg" viewBox="0 0 169.06 48.38"><defs><style>.cls-1{fill:#fff;fill-rule:evenodd;}</style></defs><title>logo</title><g id="Layer_1-2" data-name="Layer_1"><g id="_328923032" data-name=" 328923032"><path class="cls-1" d="M24.45,28.18H13.38V18.33a12.63,12.63,0,0,1,.79-4.84A11,11,0,0,1,16.41,10a10.81,10.81,0,0,1,3.36-2.37,11.48,11.48,0,0,1,4.78-1H34.87V17.84c0,5.53-5.08,10.31-10.42,10.31ZM6.69,16.91V28.18H0a6.69,6.69,0,0,0,5.17,6.56,11.3,11.3,0,0,0,1.52.2v7a6.52,6.52,0,0,0,.66,2.57,6.75,6.75,0,0,0,3.29,3.19,8.68,8.68,0,0,0,1.22.4,13.18,13.18,0,0,0,1.52.2V34.91H23.5a17.77,17.77,0,0,0,12.26-4.49,14.61,14.61,0,0,0,2.67-3,16.36,16.36,0,0,0,1.64-2.87,17.56,17.56,0,0,0,1.59-7.38V-.09H23.5A17.74,17.74,0,0,0,12.85,4L10.74,6.1c-.33.4-.59.76-.92,1.19L8.27,9.93a17.78,17.78,0,0,0-1.61,6.88Z" transform="translate(0 0.09)"/><path class="cls-1" d="M147.64,10.62V34c0,.23.07.29.3.29h6.29c.47,0,.3-1.28.3-2.2V24.66a6.38,6.38,0,0,1,1.55-3.43c1.48-1.81,4.81-4.42,5.9-1.45.49,1.32.3,7.84.3,9.75v3.73c0,.46-.14,1.05.29,1.05h6.49V19.22c0-4-2.1-7.55-6.29-7.55a9.13,9.13,0,0,0-5.44,1.25,8.29,8.29,0,0,0-1.51,1.16,13.44,13.44,0,0,0-1.26,1.51V3.66a6.81,6.81,0,0,0-6.88,7Z" transform="translate(0 0.09)"/><path class="cls-1" d="M108.56,12v1.81h-2.87V19h2.87V34.31h6.49c.23,0,.3-.06.3-.29V19h5.43V34.31h6.79V13.85H115.35c0-1.42-.17-2.7.89-3.69a3.17,3.17,0,0,1,2.27-.79V3.63a10.36,10.36,0,0,0-5.93,1.45,8.71,8.71,0,0,0-4,7Z" transform="translate(0 0.09)"/><path class="cls-1" d="M93.76,29.73c-2,0-3.06-1-3.06-2.86,0-1.29,1.81-2.31,3.16-2.31a5.43,5.43,0,0,1,3.26.66,3.57,3.57,0,0,1,1.52,1.51,5.83,5.83,0,0,1-4.88,3ZM89.18,17.21h5.73A5.47,5.47,0,0,1,98,17.9c.73.63.7,1.91.7,3.23C96.63,20,92.57,20,90.3,20.64c-2.77.82-5.57,2.73-6,5.86a7.18,7.18,0,0,0,7.42,8.21,10.19,10.19,0,0,0,6.59-1.91c.66-.5,1.22-1.22,1.41-1.35.17,2.11,1.88,3.16,3.93,3.16a6.14,6.14,0,0,0,1.81-.1c0-2.47.13-13.64-.07-15.13a8,8,0,0,0-1.94-4.64,2.4,2.4,0,0,0-.46-.5c-1.81-1.45-2.87-2.17-5.47-2.17H89.11v5.17Z" transform="translate(0 0.09)"/><path class="cls-1" d="M49.9,22.84c0,5,2.34,8.87,6.88,10.91s11.54.86,14.37-3.19a5.88,5.88,0,0,0,1.12-3.76H65.58c-.43,1.78-4.78,3.56-7.31.56-2.11-2.51-2-7.88,1.68-9.52a4.59,4.59,0,0,1,4.91.82,2.69,2.69,0,0,1,.72,1h6.69c0-5.14-5.47-7.94-9.75-7.94H61.07A11.19,11.19,0,0,0,49.9,22.88Z" transform="translate(0 0.09)"/><path class="cls-1" d="M140.69,27.92c0,1.32-.82,1.88-2.21,1.91a7.51,7.51,0,0,1-3.16-.36,17.07,17.07,0,0,1-3.86-1.78c-.43-.26-.76-.5-1.18-.73-.1.43-2.11,3.66-2.38,4.22,1.58,1.06,1.81,1.62,4.29,2.51,3.69,1.32,9.16,1.71,12.42-.79a4.78,4.78,0,0,0,1.06-1c2.1-2.64,2.37-6.62-.53-8.77a16.14,16.14,0,0,0-4.58-2c-2.47-.82-6.82-1.15-5.61-3.72.83-1.75,4.39-1,5.87-.2L143,18.43a1.89,1.89,0,0,0,.76.39,20.39,20.39,0,0,1,1.22-2c.43-.69.89-1.28,1.25-2a10,10,0,0,0-3.33-2.21,13.81,13.81,0,0,0-6.13-1,9.81,9.81,0,0,0-3.75.86c-3.4,1.35-5.51,5.4-4.15,8.77,1.71,4.25,11.79,4,11.79,6.62Z" transform="translate(0 0.09)"/><path class="cls-1" d="M72.83,10V29.27c0,3.36,2.54,5.44,5.93,5.44h4.78v-6.2c-1.81,0-3.92.4-3.92-2V17.24c3.36,0,6.86.6,8.08-3.19L88,12.36c0-.16.1-.29-.23-.29H79.62V3.66a6.72,6.72,0,0,0-6.06,3.66A6.46,6.46,0,0,0,72.87,10Z" transform="translate(0 0.09)"/><path class="cls-1" d="M42.51,34c0,.23.07.29.3.29H49.3V12H42.51Z" transform="translate(0 0.09)"/><path class="cls-1" d="M25.15,12.43c0,4.58,6.52,4.52,6.75.17a3.37,3.37,0,0,0-3.13-3.43,3,3,0,0,0-2.7,1,3.13,3.13,0,0,0-.92,2.21Z" transform="translate(0 0.09)"/><path class="cls-1" d="M42.71,6.6v.66A3.35,3.35,0,1,0,43.8,4.52,3.2,3.2,0,0,0,42.71,6.6Z" transform="translate(0 0.09)"/><path class="cls-1" d="M121.57,6.8a3.36,3.36,0,1,0,6.69,0,3.35,3.35,0,0,0-6.69,0Z" transform="translate(0 0.09)"/></g></g></svg>