<?xml version="1.0" encoding="UTF-8"?>
<!DOCTYPE svg PUBLIC "-//W3C//DTD SVG 1.1//EN" "http://www.w3.org/Graphics/SVG/1.1/DTD/svg11.dtd">
<!-- Creator: CorelDRAW X6 -->
<svg xmlns="http://www.w3.org/2000/svg" xml:space="preserve" width="59.6422mm" height="17.0599mm" version="1.1" style="shape-rendering:geometricPrecision; text-rendering:geometricPrecision; image-rendering:optimizeQuality; fill-rule:evenodd; clip-rule:evenodd"
viewBox="0 0 5130 1467"
 xmlns:xlink="http://www.w3.org/1999/xlink">
 <defs>
  <style type="text/css">
   <![CDATA[
    .fil0 {fill:#2E3D9A}
   ]]>
  </style>
 </defs>
 <g id="Layer_x0020_1">
  <metadata id="CorelCorpID_0Corel-Layer"/>
  <g id="_328923032">
   <path class="fil0" d="M742 855l-336 0 0 -299c0,-58 7,-105 24,-147 15,-38 41,-79 68,-106 31,-31 60,-53 102,-72 40,-18 87,-29 145,-29l313 0 0 339c0,168 -154,313 -316,313zm-539 -342l0 342 -203 0c0,96 67,180 157,199 12,2 34,6 46,6l0 212c0,28 11,59 20,78 20,41 58,80 100,97 13,5 24,9 37,12 12,2 34,6 46,6l0 -406 307 0c141,0 275,-45 372,-136 33,-31 55,-50 81,-90 28,-41 28,-43 50,-87 28,-55 48,-143 48,-224l0 -525 -551 0c-111,0 -245,55 -323,124l-64 64c-10,12 -18,23 -28,36l-47 80c-24,55 -49,131 -49,209z"/>
   <path class="fil0" d="M4480 322l0 710c0,7 2,9 9,9l191 0c14,0 9,-39 9,-67l0 -226c0,-39 29,-81 47,-104 45,-55 146,-134 179,-44 15,40 9,238 9,296l0 113c0,14 -4,32 9,32l197 0 0 -458c0,-123 -64,-229 -191,-229 -63,0 -112,4 -165,38 -16,10 -33,22 -46,35 -16,15 -25,30 -38,46l0 -362c-119,0 -209,92 -209,212z"/>
   <path class="fil0" d="M3294 365l0 55 -87 0 0 157 87 0 0 464 197 0c7,0 9,-2 9,-9l0 -455 165 0 0 464 206 0 0 -621 -371 0c0,-43 -5,-82 27,-112 16,-15 39,-24 69,-24l0 -174c-75,0 -119,9 -180,44 -67,38 -122,130 -122,212z"/>
   <path class="fil0" d="M2845 902c-62,0 -93,-30 -93,-87 0,-39 55,-70 96,-70 41,0 61,-1 99,20 22,13 34,24 46,46 -28,52 -89,90 -148,90zm-139 -380l174 0c35,0 76,5 95,21 22,19 21,58 21,98 -64,-34 -187,-35 -256,-15 -84,25 -169,83 -182,178 -18,142 87,249 225,249 79,0 142,-14 200,-58 20,-15 37,-37 43,-41 5,64 57,96 119,96 26,0 34,2 55,-3 0,-75 4,-414 -2,-459 -9,-64 -22,-95 -59,-141 -6,-7 -6,-9 -14,-15 -55,-44 -87,-66 -166,-66l-255 0 0 157z"/>
   <path class="fil0" d="M1514 693c0,152 71,269 209,331 139,62 350,26 436,-97 24,-34 34,-65 34,-114l-203 0c-13,54 -145,108 -222,17 -64,-76 -61,-239 51,-289 44,-20 111,-14 149,25 8,8 19,19 22,30l203 0c0,-156 -166,-241 -296,-241l-44 0c-189,0 -339,155 -339,339z"/>
   <path class="fil0" d="M4269 847c0,40 -25,57 -67,58 -43,2 -52,1 -96,-11 -34,-9 -87,-35 -117,-54 -13,-8 -23,-15 -36,-22 -3,13 -64,111 -72,128 48,32 55,49 130,76 112,40 278,52 377,-24 12,-9 22,-16 32,-29 64,-80 72,-201 -16,-266 -41,-30 -92,-46 -139,-61 -75,-25 -207,-35 -170,-113 25,-53 133,-29 178,-6l65 36c8,5 12,10 23,12 3,-10 30,-50 37,-61 13,-21 27,-39 38,-60 -15,-23 -75,-56 -101,-67 -70,-28 -110,-29 -186,-29 -45,0 -81,13 -114,26 -103,41 -167,164 -126,266 52,129 358,122 358,201z"/>
   <path class="fil0" d="M2210 302l0 586c0,102 77,165 180,165l145 0 0 -188c-55,0 -119,12 -119,-61l0 -281c102,0 208,18 245,-97l8 -51c0,-5 3,-9 -7,-9l-246 0 0 -255c-86,0 -148,46 -184,111 -10,17 -21,55 -21,80z"/>
   <path class="fil0" d="M1290 1032c0,7 2,9 9,9l197 0 0 -676 -206 0 0 667z"/>
   <path class="fil0" d="M763 377c0,139 198,137 205,5 3,-52 -44,-104 -95,-104 -36,0 -52,2 -82,31 -15,15 -28,39 -28,67z"/>
   <path class="fil0" d="M1296 200l0 20c0,52 51,95 102,95 55,0 101,-43 101,-109 0,-78 -105,-130 -170,-69 -14,13 -33,38 -33,63z"/>
   <path class="fil0" d="M3689 206c0,32 7,62 31,82 67,57 172,22 172,-82 0,-50 -46,-96 -104,-96 -50,0 -99,45 -99,96z"/>
  </g>
 </g>
</svg>
